<?xml version="1.0" encoding="utf-8"?>
<!-- Generator: Adobe Illustrator 25.4.1, SVG Export Plug-In . SVG Version: 6.00 Build 0)  -->
<svg version="1.0" id="Layer_2_00000016077795531499534920000000520624985260302240_"
	 xmlns="http://www.w3.org/2000/svg" xmlns:xlink="http://www.w3.org/1999/xlink" x="0px" y="0px" viewBox="0 0 612 792"
	 style="enable-background:new 0 0 612 792;" xml:space="preserve">
<path d="M332.24,160.92c0,0-7.02,135.45-44.2,180.89c-34.36,41.98-143.85,54.18-143.85,54.18s106.78,10.32,145.28,58.44
	c32.95,41.19,42.77,176.64,42.77,176.64s5.61-143.32,55.44-189.63C432.13,400.11,521,396.01,521,396.01s-74.38-4.37-129.82-41.95
	C340.46,319.67,332.24,160.92,332.24,160.92z"/>
<path d="M203.82,177.52c0,0-3.22,40.4-11.93,51.56c-11.07,14.2-47.71,16.6-47.71,16.6s36.89,4,47.01,20.1
	c8.53,13.55,12.63,50.69,12.63,50.69s2.47-44.82,16.84-58.55c10.45-10,38.59-10.92,38.59-10.92s-30.42-6.16-40.39-15.7
	C210.52,223.32,203.82,177.52,203.82,177.52z"/>
</svg>
